<?xml version="1.0" encoding="UTF-8"?>
<svg width="512px" height="512px" viewBox="0 0 512 512" version="1.1" xmlns="http://www.w3.org/2000/svg" xmlns:xlink="http://www.w3.org/1999/xlink">
    <!-- Generator: Sketch 59 (86127) - https://sketch.com -->
    <title>telegram-white</title>
    <desc>Created with Sketch.</desc>
    <g id="Page-1" stroke="none" stroke-width="1" fill="none" fill-rule="evenodd">
        <g id="telegram-white" fill="#FFFFFF" fill-rule="nonzero">
            <path d="M256,512 C397.162667,512 512,397.162667 512,256 C512,114.837333 397.162667,0 256,0 C114.837333,0 0,114.837333 0,256 C0,397.162667 114.837333,512 256,512 Z M256,32 C379.52,32 480,132.48 480,256 C480,379.52 379.52,480 256,480 C132.48,480 32,379.52 32,256 C32,132.48 132.48,32 256,32 Z" id="Shape"></path>
            <path d="M168.448,301.973333 L201.898667,287.445333 L192.512,296.853333 C189.504,299.861333 187.818667,303.936 187.818667,308.16 L187.818667,370.773333 C187.818667,385.109333 205.141333,392.064 215.125333,382.08 L248.704,348.501333 L321.877333,385.088 C331.349333,389.824 342.805333,384.213333 344.768,373.632 L386.517333,144.064 C388.714667,131.712 376.554667,121.728 364.928,126.293333 L93.6533333,232.469333 C81.4933333,237.205333 79.872,253.845333 90.88,260.864 L153.472,300.8 C157.952,303.658667 163.605333,304.106667 168.448,301.973333 Z M349.909333,166.570667 L317.12,346.944 L252.693333,314.752 C246.464,311.637333 239.04,312.938667 234.24,317.76 L219.818667,332.181333 L219.818667,314.837333 L283.968,250.688 C296.405333,238.250667 282.410667,217.728 266.282667,224.704 L163.52,269.290667 L134.634667,250.858667 L349.909333,166.570667 Z" id="Shape"></path>
        </g>
    </g>
</svg>