<?xml version="1.0" encoding="UTF-8"?>
<svg width="20px" height="20px" viewBox="0 0 20 20" version="1.1" xmlns="http://www.w3.org/2000/svg" xmlns:xlink="http://www.w3.org/1999/xlink">
    <title>click</title>
    <g id="Page-1" stroke="none" stroke-width="1" fill="none" fill-rule="evenodd">
        <g id="intro" transform="translate(-523.000000, -477.000000)" fill="#AAAAAA" fill-rule="nonzero">
            <g id="left-block" transform="translate(0.999306, 80.461126)">
                <g id="form" transform="translate(30.000694, 369.538874)">
                    <g id="button" transform="translate(300.000000, 0.000000)">
                        <g id="click" transform="translate(192.000000, 27.000000)">
                            <path d="M19.8283594,16.5138281 L16.4491406,13.1346094 L18.1064453,11.4773438 C18.2500391,11.33375 18.3090625,11.1260547 18.2623828,10.9283984 C18.2157031,10.7307422 18.0700781,10.5713672 17.8774219,10.5071484 L7.93375,7.19257812 C7.72324219,7.12238281 7.49105469,7.1771875 7.33414063,7.33414062 C7.1771875,7.49109375 7.12238281,7.72320312 7.19257813,7.93375 L10.5071484,17.8774609 C10.5714062,18.0701172 10.7307813,18.2157812 10.9283984,18.2624219 C11.1260156,18.3091797 11.33375,18.2501172 11.4773437,18.1064844 L13.1346484,16.4492188 L16.5138672,19.8283984 C16.6282813,19.9428125 16.7782422,20.0000391 16.9281641,20.0000391 C17.0780859,20.0000391 17.2280859,19.9428516 17.3424609,19.8283984 L19.8283984,17.3424609 C20.0572266,17.1136328 20.0572266,16.7426563 19.8283594,16.5138281 Z M16.928125,18.5854297 L13.5489063,15.20625 C13.3201172,14.9774219 12.9490625,14.9774219 12.7202734,15.20625 L11.3190625,16.6074609 L8.67488281,8.67492187 L16.6074219,11.3191016 L15.2062109,12.7203125 C14.9775781,12.9489062 14.9773828,13.3201562 15.2062109,13.5489453 L18.5854297,16.9281641 L16.928125,18.5854297 Z" id="Shape"></path>
                            <path d="M7.6171875,4.6875 C7.94078125,4.6875 8.203125,4.42515625 8.203125,4.1015625 L8.203125,0.5859375 C8.203125,0.26234375 7.94078125,0 7.6171875,0 C7.29359375,0 7.03125,0.26234375 7.03125,0.5859375 L7.03125,4.1015625 C7.03125,4.42515625 7.29359375,4.6875 7.6171875,4.6875 Z" id="Path"></path>
                            <path d="M3.05964844,2.23101562 C2.83085938,2.0021875 2.45984375,2.0021875 2.23101562,2.23101562 C2.0021875,2.45984375 2.0021875,2.83082031 2.23101562,3.05964844 L4.71695312,5.54558594 C4.94574219,5.77441406 5.31679687,5.77441406 5.54558594,5.54558594 C5.77441406,5.31675781 5.77441406,4.94578125 5.54558594,4.71695312 L3.05964844,2.23101562 Z" id="Path"></path>
                            <path d="M4.71695313,9.68878906 L2.23101563,12.1747266 C2.0021875,12.4035547 2.0021875,12.7745313 2.23101563,13.0033594 C2.45980469,13.2321875 2.83085938,13.2321875 3.05964844,13.0033594 L5.54558594,10.5174219 C5.77441406,10.2885938 5.77441406,9.91761719 5.54558594,9.68878906 C5.31675781,9.45996094 4.94574219,9.45996094 4.71695313,9.68878906 Z" id="Path"></path>
                            <path d="M10.5174219,5.54558594 L13.0033594,3.05964844 C13.2321875,2.83082031 13.2321875,2.45984375 13.0033594,2.23101563 C12.7745703,2.0021875 12.4035547,2.0021875 12.1747266,2.23101563 L9.68878906,4.71695313 C9.45996094,4.94578125 9.45996094,5.31675781 9.68878906,5.54558594 C9.91757812,5.77441406 10.2886328,5.77441406 10.5174219,5.54558594 Z" id="Path"></path>
                            <path d="M4.6875,7.6171875 C4.6875,7.29359375 4.42515625,7.03125 4.1015625,7.03125 L0.5859375,7.03125 C0.26234375,7.03125 0,7.29359375 0,7.6171875 C0,7.94078125 0.26234375,8.203125 0.5859375,8.203125 L4.1015625,8.203125 C4.42515625,8.203125 4.6875,7.94078125 4.6875,7.6171875 Z" id="Path"></path>
                        </g>
                    </g>
                </g>
            </g>
        </g>
    </g>
</svg>