<?xml version="1.0" encoding="UTF-8"?>
<svg width="406px" height="512px" viewBox="0 0 406 512" version="1.1" xmlns="http://www.w3.org/2000/svg" xmlns:xlink="http://www.w3.org/1999/xlink">
    <!-- Generator: Sketch 59 (86127) - https://sketch.com -->
    <title>down-arrow</title>
    <desc>Created with Sketch.</desc>
    <g id="Page-1" stroke="none" stroke-width="1" fill="none" fill-rule="evenodd">
        <g id="down-arrow" fill="#FFFFFF" fill-rule="nonzero">
            <path d="M387.437,301.781 L213.656,475.584 L213.656,10.667 C213.656,4.776 208.88,0 202.989,0 C197.098,0 192.322,4.776 192.322,10.667 L192.322,475.584 L18.541,301.781 C14.304,297.688 7.551,297.806 3.458,302.043 C-0.534,306.177 -0.534,312.73 3.458,316.863 L195.458,508.863 C199.618,513.034 206.372,513.042 210.543,508.882 C210.549,508.876 210.556,508.869 210.562,508.863 L402.562,316.863 C406.655,312.626 406.537,305.873 402.3,301.78 C398.166,297.787 391.613,297.787 387.479,301.78 L387.437,301.781 Z" id="Path"></path>
            <path d="M202.989,512.000017 C200.158,512.005 197.441,510.885 195.437,508.885 L3.437,316.885 C-0.656,312.648 -0.538,305.895 3.699,301.802 C7.833,297.81 14.386,297.81 18.519,301.802 L202.988,486.25 L387.436,301.802 C391.673,297.709 398.426,297.827 402.519,302.064 C406.512,306.198 406.512,312.751 402.519,316.885 L210.519,508.885 C208.521,510.879 205.813,512.000017 202.989,512.000017 Z" id="Path"></path>
            <path d="M202.989,512 C197.098,512 192.322,507.224 192.322,501.333 L192.322,10.667 C192.323,4.776 197.098,0 202.989,0 C208.88,0 213.656,4.776 213.656,10.667 L213.656,501.334 C213.656,507.224 208.88,512 202.989,512 Z" id="Path"></path>
        </g>
    </g>
</svg>