<?xml version="1.0" encoding="UTF-8"?>
<svg width="512px" height="370px" viewBox="0 0 512 370" version="1.1" xmlns="http://www.w3.org/2000/svg" xmlns:xlink="http://www.w3.org/1999/xlink">
    <title>menu-black</title>
    <g id="Page-1" stroke="none" stroke-width="1" fill="none" fill-rule="evenodd">
        <g id="menu-black" fill="#111111" fill-rule="nonzero">
            <path d="M490.666667,206.223959 L21.3333333,206.223959 C9.557292,206.223959 0,196.666667 0,184.890625 C0,173.114584 9.557292,163.557292 21.3333333,163.557292 L490.666667,163.557292 C502.442708,163.557292 512,173.114584 512,184.890625 C512,196.666667 502.442708,206.223959 490.666667,206.223959 Z" id="Path"></path>
            <path d="M490.666667,42.6666667 L21.3333333,42.6666667 C9.557292,42.6666667 0,33.1093747 0,21.3333333 C0,9.557292 9.557292,0 21.3333333,0 L490.666667,0 C502.442708,0 512,9.557292 512,21.3333333 C512,33.1093747 502.442708,42.6666667 490.666667,42.6666667 Z" id="Path"></path>
            <path d="M490.666667,369.776041 L21.3333333,369.776041 C9.557292,369.776041 0,360.218749 0,348.442708 C0,336.666667 9.557292,327.109375 21.3333333,327.109375 L490.666667,327.109375 C502.442708,327.109375 512,336.666667 512,348.442708 C512,360.218749 502.442708,369.776041 490.666667,369.776041 Z" id="Path"></path>
        </g>
    </g>
</svg>