<?xml version="1.0" encoding="UTF-8"?>
<svg width="12px" height="16px" viewBox="0 0 12 16" version="1.1" xmlns="http://www.w3.org/2000/svg" xmlns:xlink="http://www.w3.org/1999/xlink">
    <title>pin</title>
    <g id="Page-1" stroke="none" stroke-width="1" fill="none" fill-rule="evenodd">
        <g id="intro" transform="translate(-1101.000000, -49.000000)" fill="#087E54" fill-rule="nonzero">
            <g id="menu" transform="translate(0.777310, 0.000000)">
                <g id="pin" transform="translate(1101.000000, 49.000000)">
                    <path d="M5.34375,0 C2.403,0 0.01040625,2.39259375 0.01040625,5.33334375 C0.01040625,6.21615625 0.231125,7.09146875 0.65071875,7.86784375 L5.05209375,15.828125 C5.1106875,15.93425 5.22234375,16 5.34375,16 C5.46515625,16 5.5768125,15.93425 5.63540625,15.828125 L10.0384062,7.86521875 C10.456375,7.09146875 10.6770937,6.216125 10.6770937,5.3333125 C10.6770937,2.39259375 8.2845,0 5.34375,0 Z M5.34375,8 C3.873375,8 2.67709375,6.80371875 2.67709375,5.33334375 C2.67709375,3.86296875 3.873375,2.6666875 5.34375,2.6666875 C6.814125,2.6666875 8.01040625,3.86296875 8.01040625,5.33334375 C8.01040625,6.80371875 6.814125,8 5.34375,8 Z" id="Shape"></path>
                </g>
            </g>
        </g>
    </g>
</svg>