<?xml version="1.0" encoding="UTF-8"?>
<svg width="416px" height="409px" viewBox="0 0 416 409" version="1.1" xmlns="http://www.w3.org/2000/svg" xmlns:xlink="http://www.w3.org/1999/xlink">
    <!-- Generator: Sketch 59 (86127) - https://sketch.com -->
    <title>right-drawn-arrow</title>
    <desc>Created with Sketch.</desc>
    <g id="Page-1" stroke="none" stroke-width="1" fill="none" fill-rule="evenodd">
        <g id="right-drawn-arrow" fill="#FFFFFF" fill-rule="nonzero">
            <path d="M414.937,371.984 C406.981,347.505 394.741,324.248 384.336,300.992 C383.112,297.932 378.216,297.932 376.38,299.768 C365.977,310.784 354.349,321.8 347.616,335.264 L347.004,335.264 C272.34,340.772 200.124,277.123 148.716,230.612 C89.352,177.368 35.496,112.496 14.076,34.772 C12.852,24.98 11.628,14.576 11.628,4.172 C11.628,-0.724 4.896,-0.724 4.284,4.172 C4.284,6.008 4.284,7.844 4.284,9.68 C1.836,9.68 0,11.516 0,14.576 C0.612,21.308 2.448,28.04 3.672,34.772 C8.568,200.624 173.808,360.356 335.376,370.76 C329.868,380.552 324.973,390.955 318.853,400.748 C315.792,405.031 320.689,409.315 324.973,408.703 C355.573,404.42 383.113,389.731 411.265,378.716 C413.712,378.104 416.16,375.656 414.937,371.984 Z M332.928,396.464 C336.601,388.508 339.048,380.552 343.332,372.596 C344.557,369.535 342.72,367.088 340.884,366.476 C340.884,364.64 339.66,363.415 337.824,362.804 C191.556,338.324 72.828,238.568 28.764,103.315 C57.528,156.559 101.592,203.071 145.044,242.239 C176.868,271.004 210.528,296.707 247.248,318.127 C276.012,334.651 312.12,349.951 345.168,339.548 L345.168,339.548 C343.332,344.444 350.676,346.892 353.124,343.22 C361.08,332.816 369.036,323.024 377.604,313.844 C386.171,332.816 395.352,351.787 402.083,371.371 C379.44,379.94 356.796,390.956 332.928,396.464 Z" id="Shape"></path>
        </g>
    </g>
</svg>